<?xml version="1.0" standalone="no"?>
<!DOCTYPE svg PUBLIC "-//W3C//DTD SVG 20010904//EN"
 "http://www.w3.org/TR/2001/REC-SVG-20010904/DTD/svg10.dtd">
<svg version="1.0" xmlns="http://www.w3.org/2000/svg"
 width="501.000000pt" height="501.000000pt" viewBox="0 0 501.000000 501.000000"
 preserveAspectRatio="xMidYMid meet">
<metadata>
Created by potrace 1.11, written by Peter Selinger 2001-2013
</metadata>
<g transform="translate(0.000000,501.000000) scale(0.100000,-0.100000)"
fill="#000000" stroke="none">
<path d="M2954 4393 c-16 -8 -42 -25 -59 -37 -16 -13 -167 -119 -335 -236
-168 -117 -340 -237 -382 -267 l-76 -53 1 129 c1 141 -9 172 -59 191 -36 14
-846 13 -877 -1 -52 -23 -51 -17 -52 -546 0 -270 -3 -494 -5 -496 -3 -2 -185
-136 -405 -297 -220 -161 -412 -304 -427 -318 -14 -13 -28 -35 -31 -50 -7 -35
11 -80 37 -95 15 -9 132 -13 425 -17 l403 -5 0 -804 c-1 -875 -2 -847 55 -869
37 -14 1718 -14 1750 1 55 25 59 109 7 155 l-26 22 -556 0 c-306 0 -665 0
-798 0 l-241 0 0 808 c0 601 -3 813 -12 830 -24 45 -47 48 -364 48 -163 -1
-297 1 -297 4 0 3 15 15 33 28 17 13 70 52 117 86 47 35 175 129 285 210 110
81 208 159 217 174 16 25 18 67 18 490 l0 462 93 0 c50 0 188 2 305 3 l212 2
1 -30 c0 -16 0 -92 0 -168 -1 -146 8 -185 48 -207 45 -24 76 -12 212 83 815
569 817 570 832 560 11 -6 89 -68 417 -328 121 -96 967 -763 1082 -853 75 -59
111 -69 156 -42 35 22 49 69 34 111 -7 17 -290 247 -824 669 -447 354 -818
647 -823 651 -21 16 -64 17 -91 2z"/>
<path d="M2347 2830 l-22 -18 19 -54 c10 -29 26 -71 36 -93 10 -22 55 -130
100 -240 45 -110 88 -207 96 -214 10 -11 20 -13 40 -5 24 8 39 39 126 249 55
132 108 260 119 284 11 24 19 53 17 64 -4 26 -45 49 -68 37 -8 -5 -47 -84 -85
-177 -38 -92 -71 -172 -75 -178 -4 -5 -15 -32 -24 -58 -10 -27 -21 -45 -25
-40 -8 9 -9 12 -102 238 -83 203 -87 212 -110 218 -10 3 -29 -3 -42 -13z"/>
<path d="M2972 2839 c-27 -10 -24 18 -26 -328 -1 -303 0 -311 48 -311 41 0 46
17 46 150 l0 126 28 21 28 21 129 -159 c70 -88 135 -159 142 -159 27 0 53 21
53 43 0 19 -57 98 -180 247 -53 64 -67 89 -54 98 57 36 226 172 235 188 13 25
-4 60 -34 68 -18 4 -39 -11 -262 -182 l-80 -62 -2 98 c-2 53 -5 107 -8 118 -6
25 -32 34 -63 23z"/>
<path d="M1960 2830 c-91 -17 -165 -77 -208 -170 -37 -77 -36 -200 0 -280 69
-151 217 -211 355 -144 163 79 213 313 101 480 -55 81 -160 129 -248 114z
m129 -127 c169 -135 61 -448 -136 -393 -103 29 -158 159 -123 288 13 49 83
127 121 135 48 10 101 -1 138 -30z"/>
<path d="M3841 1974 c-18 -23 -19 -47 -19 -484 0 -419 2 -462 17 -481 21 -26
65 -28 91 -4 19 17 20 33 21 324 l0 306 37 -75 c35 -69 56 -116 157 -335 62
-134 106 -220 118 -227 22 -14 64 -8 81 10 9 11 45 81 80 158 35 76 79 173 98
214 19 41 50 109 68 150 19 41 37 79 40 83 4 4 7 -123 7 -282 0 -254 2 -293
17 -315 20 -32 67 -35 95 -7 19 19 20 38 20 484 0 451 0 465 -20 485 -11 12
-30 22 -42 22 -24 0 -67 -25 -67 -39 0 -7 -187 -418 -291 -639 -21 -46 -39
-88 -39 -93 0 -5 -4 -9 -8 -9 -8 0 -22 27 -125 250 -43 93 -86 184 -189 402
-28 59 -58 110 -67 114 -37 15 -61 12 -80 -12z"/>
<path d="M1740 1502 l0 -488 268 1 267 1 65 30 c110 52 184 150 231 304 33
107 32 257 0 359 -43 132 -138 232 -255 266 -38 12 -110 15 -313 15 l-263 0 0
-488z m579 330 c55 -29 75 -52 113 -131 28 -58 32 -75 32 -155 0 -50 -3 -104
-6 -119 -21 -90 -64 -175 -110 -220 -54 -52 -84 -58 -287 -59 l-186 -1 -3 357
-2 357 202 -3 c189 -3 206 -5 247 -26z"/>
<path d="M3037 1974 c-155 -40 -284 -160 -338 -315 -30 -88 -31 -229 0 -313
91 -255 365 -390 619 -305 192 64 318 230 328 432 7 151 -39 273 -141 373
-126 124 -300 172 -468 128z m275 -147 c82 -40 133 -90 170 -165 30 -60 33
-75 33 -157 0 -78 -4 -98 -29 -152 -30 -66 -97 -137 -156 -168 -90 -47 -220
-47 -313 -1 -286 141 -257 557 46 658 75 26 179 19 249 -15z"/>
</g>
</svg>
