<svg xmlns="http://www.w3.org/2000/svg" xmlns:xlink="http://www.w3.org/1999/xlink" viewBox="0 0 60 60">
  <defs>
    <style>
      .cls-1 {
        fill: none;
      }

      .cls-2 {
        clip-path: url(#clip-path);
      }
    </style>
    <clipPath id="clip-path">
      <rect class="cls-1" width="60" height="60"/>
    </clipPath>
  </defs>
  <title>Kanalizacia</title>
  <g id="Слой_2" data-name="Слой 2">
    <g id="Слой_1-2" data-name="Слой 1">
      <g class="cls-2">
        <g>
          <path d="M59,5.81h-2.9V1a1,1,0,0,0-1-1H39.68a1,1,0,0,0-1,1V5.81h-2.9a1,1,0,0,0-1,1v5.81a1,1,0,0,0,1,1h2.84a8.65,8.65,0,0,1-4.78,6.84v-2a1,1,0,0,0-1-1H27.1a1,1,0,0,0-1,1v3.19A26.1,26.1,0,0,0,3.89,46.45H1a1,1,0,0,0-1,1v5.81a1,1,0,0,0,1,1h2.9V59a1,1,0,0,0,1,1H20.32a1,1,0,0,0,1-1V54.19h2.9a1,1,0,0,0,1-1V47.42a1,1,0,0,0-1-1H21.35a8.65,8.65,0,0,1,4.78-6.84v2a1,1,0,0,0,1,1H32.9a1,1,0,0,0,1-1V38.42A26.1,26.1,0,0,0,56.11,13.55H59a1,1,0,0,0,1-1V6.77A1,1,0,0,0,59,5.81ZM40.65,1.94H54.19V5.81H40.65ZM19.35,58.06H5.81V54.19H19.35Zm3.87-5.81H1.94V48.39H23.23ZM19.4,46.45H5.85A24.13,24.13,0,0,1,26.13,23.56V37.5A10.59,10.59,0,0,0,19.4,46.45Zm12.53-5.81H28.06V19.35h3.87Zm1.94-4.21V22.5a10.59,10.59,0,0,0,6.73-8.95H54.15A24.14,24.14,0,0,1,33.87,36.44ZM58.06,11.61H36.77V7.74H58.06Z"/>
          <path d="M53.09,37.25a1,1,0,0,0-1.67,0L46,46.61A10.67,10.67,0,0,0,44.52,52,8,8,0,0,0,52,60h.24A7.74,7.74,0,0,0,60,52.26V52a10.67,10.67,0,0,0-1.45-5.36Zm5,15a5.76,5.76,0,0,1-1.76,4.17,5.83,5.83,0,0,1-4.22,1.64A6,6,0,0,1,46.45,52a8.71,8.71,0,0,1,1.19-4.39l4.62-7.92,4.62,7.92A8.71,8.71,0,0,1,58.06,52Z"/>
          <path d="M52.26,54.19v1.94a3.87,3.87,0,0,0,3.87-3.87H54.19A1.94,1.94,0,0,1,52.26,54.19Z"/>
          <path d="M7.5,23.22h.24a7.74,7.74,0,0,0,7.74-7.74V15.2A10.66,10.66,0,0,0,14,9.83L8.58.48A1,1,0,0,0,6.9.48L1.45,9.83A10.67,10.67,0,0,0,0,15.2,8,8,0,0,0,7.5,23.22ZM3.12,10.81,7.74,2.89l4.62,7.92a8.71,8.71,0,0,1,1.19,4.39v.29a5.76,5.76,0,0,1-1.76,4.17,5.84,5.84,0,0,1-4.22,1.64A6,6,0,0,1,1.94,15.2,8.7,8.7,0,0,1,3.12,10.81Z"/>
          <path d="M11.61,15.48H9.68a1.94,1.94,0,0,1-1.94,1.94v1.94A3.87,3.87,0,0,0,11.61,15.48Z"/>
        </g>
      </g>
    </g>
  </g>
</svg>
