<svg xmlns="http://www.w3.org/2000/svg" viewBox="0 0 60 59.99">
  <title>VodoSnabgenie</title>
  <g id="Слой_2" data-name="Слой 2">
    <g id="Слой_1-2" data-name="Слой 1">
      <path d="M48,40a8,8,0,1,0,8,8A8,8,0,0,0,48,40Zm0,14a6,6,0,1,1,6-6A6,6,0,0,1,48,54Z"/>
      <path d="M48,44a4,4,0,0,0-4,4h2a2,2,0,0,1,4,0h2A4,4,0,0,0,48,44Z"/>
      <path d="M49,49H47v3h2Z"/>
      <path d="M41.15,2.15A30,30,0,0,0,0,30c0,17.1,12.9,30,30,30H48a12,12,0,0,0,9.84-18.84A30,30,0,0,0,41.15,2.15ZM29.88,54A1,1,0,0,0,29,55v3a28.74,28.74,0,0,1-12.22-3.08l2.08-3.61-1.73-1L15,53.92a26.68,26.68,0,0,1-9-9l3.64-2.1-1-1.73L5.1,43.21A28.74,28.74,0,0,1,2,31H6V29H2A27.81,27.81,0,0,1,5.27,16.88l3.44,2,1-1.73-3.44-2a28.2,28.2,0,0,1,8.87-8.87l2,3.44,1.73-1-2-3.44A27.81,27.81,0,0,1,29,2V6h2V2A27.81,27.81,0,0,1,43.12,5.27l-2,3.44,1.73,1,2-3.44a28.2,28.2,0,0,1,8.87,8.87l-3.44,2,1,1.73,3.44-2A27.81,27.81,0,0,1,58,29H54v2h4a27.75,27.75,0,0,1-1.6,8.42A12,12,0,0,0,49,36,19.79,19.79,0,0,0,50,30,20,20,0,1,0,30,50a19.79,19.79,0,0,0,6.06-1,11.91,11.91,0,0,0,1.13,4.17Zm6.67-38.61a16,16,0,1,0-.06,29.2,11.83,11.83,0,0,0-.44,2.32A18.1,18.1,0,1,1,46.92,36.05a11.83,11.83,0,0,0-2.32.44A16,16,0,0,0,36.56,15.39ZM26.16,28.94a3.58,3.58,0,0,0,0,2.12l-8.74,5a13.82,13.82,0,0,1,0-12.21Zm-7.75-6.78A14,14,0,0,1,29,16V26.14a4,4,0,0,0-1.85,1.06ZM27.15,32.8A4,4,0,0,0,29,33.85V43.94a14,14,0,0,1-10.59-6.1ZM28,30a2,2,0,1,1,2,2A2,2,0,0,1,28,30Zm3-3.86V16a14,14,0,0,1,10.59,6.1l-8.74,5A4,4,0,0,0,31,26.14Zm0,7.72a4,4,0,0,0,1.85-1.06l8.73,5,0,.07a12.09,12.09,0,0,0-3.63,3.63A13.9,13.9,0,0,1,31,44Zm2.84-2.8a3.58,3.58,0,0,0,0-2.12l8.74-5a13.87,13.87,0,0,1,0,12.22ZM33,58H31v-2.1l2-.22Zm20.48-1.63A10,10,0,0,1,48,58H35V55.44L38.91,55a1,1,0,0,0,.73-1.54,10,10,0,1,1,13.84,2.89Z"/>
    </g>
  </g>
</svg>
