<svg xmlns="http://www.w3.org/2000/svg" xmlns:xlink="http://www.w3.org/1999/xlink" viewBox="0 0 60 57.5">
  <defs>
    <style>
      .cls-1 {
        fill: none;
      }

      .cls-2 {
        clip-path: url(#clip-path);
      }
    </style>
    <clipPath id="clip-path" transform="translate(0 -1.25)">
      <rect class="cls-1" width="60" height="60"/>
    </clipPath>
  </defs>
  <title>DomoKomplekty</title>
  <g id="Слой_2" data-name="Слой 2">
    <g id="Слой_1-2" data-name="Слой 1">
      <g class="cls-2">
        <path d="M51.25,58.75h-15A1.25,1.25,0,0,1,35,57.5V41.25H25V57.5a1.25,1.25,0,0,1-1.25,1.25h-15A1.25,1.25,0,0,1,7.5,57.5v-25a1.25,1.25,0,0,1,2.5,0V56.25H22.5V40a1.25,1.25,0,0,1,1.25-1.25h12.5A1.25,1.25,0,0,1,37.5,40V56.25H50V33.75a1.25,1.25,0,0,1,2.5,0V57.5A1.25,1.25,0,0,1,51.25,58.75Zm7.5-26.25a1.25,1.25,0,0,1-.88-.37L30,4.27,2.13,32.13A1.25,1.25,0,0,1,.37,30.37L29.12,1.62a1.25,1.25,0,0,1,1.77,0L59.63,30.37a1.25,1.25,0,0,1-.88,2.13ZM48.75,15a1.25,1.25,0,0,1-1.25-1.25V6.25H40a1.25,1.25,0,0,1,0-2.5h8.75A1.25,1.25,0,0,1,50,5v8.75A1.25,1.25,0,0,1,48.75,15Z" transform="translate(0 -1.25)"/>
      </g>
    </g>
  </g>
</svg>
