<svg xmlns="http://www.w3.org/2000/svg" viewBox="0 0 40 36.92">
	<path d="M26.88,28.39h-22a1,1,0,1,1,0-2h22a2.85,2.85,0,0,0,1.27-.21l.51-2.5H5.18l-.19,0c-1.16-.23-2.32-1-2.4-2.12L0,9.05A2.3,2.3,0,0,1,.5,7.16a2.59,2.59,0,0,1,2.12-.87H32.19l.4-1.95c.1-1.39,1.9-2.38,2.47-2.66L38.59.09a1,1,0,1,1,.82,1.83L35.9,3.48a3.44,3.44,0,0,0-1.33,1,.44.44,0,0,1,0,.13L34,7.46v0L30.86,22.85v0l-.76,3.72C30,27.11,29.57,28.39,26.88,28.39Zm1.23-1.94h0ZM5.28,21.67H29.06L31.78,8.28H2.62A.83.83,0,0,0,2,8.42a.33.33,0,0,0,0,.23L4.56,21.22a1.12,1.12,0,0,1,0,.13A1.76,1.76,0,0,0,5.28,21.67Zm-.7-.26h0Z"/>
	<path d="M23.36,36.92a4.2,4.2,0,1,1,4.23-4.2A4.22,4.22,0,0,1,23.36,36.92Zm0-6.4a2.2,2.2,0,1,0,2.23,2.2A2.22,2.22,0,0,0,23.36,30.53Z"/>
	<path d="M10.6,36.92a4.2,4.2,0,1,1,4.23-4.2A4.22,4.22,0,0,1,10.6,36.92Zm0-6.4a2.2,2.2,0,1,0,2.23,2.2A2.22,2.22,0,0,0,10.6,30.53Z"/>
	<path d="M24,18.65H10a1,1,0,0,1,0-2H24a1,1,0,0,1,0,2Zm.64-5H9.32a1,1,0,0,1,0-2H24.64a1,1,0,0,1,0,2Z"/>
</svg>