<svg xmlns="http://www.w3.org/2000/svg" viewBox="0 0 31 31">
	<path d="M30.6337 0.367022C30.1447 -0.122015 29.3518 -0.122015 28.8628 0.367022L0.367266 28.8625C-0.121771 29.3515 -0.121771 30.1444 0.367266 30.6334C0.611754 30.878 0.93229 31.0002 1.25276 31.0002C1.57324 31.0002 1.89371 30.878 2.13826 30.6334L30.6337 2.1379C31.1227 1.64892 31.1227 0.856059 30.6337 0.367022Z"/>
	<path d="M30.6332 28.8625L2.13765 0.367022C1.64868 -0.122015 0.855754 -0.122015 0.366778 0.367022C-0.122259 0.855999 -0.122259 1.64886 0.366778 2.1379L28.8623 30.6334C29.1068 30.878 29.4273 31.0002 29.7478 31.0002C30.0683 31.0002 30.3888 30.878 30.6333 30.6335C31.1222 30.1444 31.1222 29.3515 30.6332 28.8625Z"/>
</svg>