<svg xmlns="http://www.w3.org/2000/svg" viewBox="0 0 13.89 23">
	<path d="M6.94,23c-.55,0-1.1-.38-2.15-2.3a47.29,47.29,0,0,1-2.11-4.54C1.39,13,0,8.91,0,6.94a6.94,6.94,0,0,1,13.89,0c0,2-1.39,6.05-2.69,9.22A47.26,47.26,0,0,1,9.09,20.7C8,22.62,7.49,23,6.94,23Zm0-21.51A5.46,5.46,0,0,0,1.49,6.94c0,1.36.94,4.57,2.38,8.18.65,1.63,1.35,3.18,2,4.36a12,12,0,0,0,1.1,1.84A12,12,0,0,0,8,19.49c.61-1.18,1.31-2.73,2-4.36,1.45-3.61,2.38-6.82,2.38-8.18A5.46,5.46,0,0,0,6.94,1.49Z"/>
	<path d="M6.94,9.47A2.84,2.84,0,1,1,9.78,6.63,2.84,2.84,0,0,1,6.94,9.47Zm0-4.18A1.34,1.34,0,1,0,8.29,6.63,1.35,1.35,0,0,0,6.94,5.28Z"/>
</svg>