<svg xmlns="http://www.w3.org/2000/svg" viewBox="0 0 22 16.74">
	<path d="M19.31,2.63H2.69A2.69,2.69,0,0,0,0,5.32V16.68a2.69,2.69,0,0,0,2.69,2.69H19.31A2.69,2.69,0,0,0,22,16.68V5.32A2.69,2.69,0,0,0,19.31,2.63Zm1.46,14.05a1.46,1.46,0,0,1-1.46,1.46H2.69a1.46,1.46,0,0,1-1.46-1.46V5.32A1.46,1.46,0,0,1,2.69,3.86H19.31a1.46,1.46,0,0,1,1.46,1.46V16.68Z" transform="translate(0 -2.63)"/>
	<path d="M13.87,10.86,19.26,6a.62.62,0,0,0-.82-.91L11,11.78,9.56,10.49h0l-.1-.09L3.56,5.11A.62.62,0,1,0,2.74,6L8.19,10.9,2.77,16a.62.62,0,0,0,0,.87.63.63,0,0,0,.45.2.62.62,0,0,0,.42-.16l5.5-5.15,1.49,1.33a.61.61,0,0,0,.82,0L13,11.68l5.47,5.2a.62.62,0,0,0,.87,0,.62.62,0,0,0,0-.87Z" transform="translate(0 -2.63)"/>
</svg>