<svg xmlns="http://www.w3.org/2000/svg" viewBox="0 0 20 20">
	<path d="M19.49,14.75,17,12.27a1.76,1.76,0,0,0-2.49,0L13.38,13.4a1.33,1.33,0,0,1-1.88,0L6.6,8.49a1.33,1.33,0,0,1,0-1.88L7.73,5.48A1.76,1.76,0,0,0,7.73,3L5.25.51a1.76,1.76,0,0,0-2.48,0l-.91.9a6.35,6.35,0,0,0,0,9l7.76,7.77a6.34,6.34,0,0,0,9,0l.9-.9A1.76,1.76,0,0,0,19.49,14.75ZM3.59,1.34a.59.59,0,0,1,.83,0L6.9,3.82a.59.59,0,0,1,0,.83l-.41.41L3.18,1.75Zm6.86,16L2.68,9.55a5.15,5.15,0,0,1-.32-7l3.3,3.3a2.5,2.5,0,0,0,.11,3.42l4.9,4.9h0a2.5,2.5,0,0,0,3.42.11l3.3,3.3A5.14,5.14,0,0,1,10.45,17.31Zm8.21-.9-.41.41-3.32-3.32.41-.41a.59.59,0,0,1,.83,0l2.49,2.49A.59.59,0,0,1,18.66,16.41Z" transform="translate(0)"/>
</svg>