<svg xmlns="http://www.w3.org/2000/svg" viewBox="0 0 136 135.02">
  <defs>
    <style>
      .cls-1 {
        fill: #0f4f86;
      }
    </style>
  </defs>
  <title>no-photo</title>
  <g id="Слой_2" data-name="Слой 2">
    <g id="Слой_1-2" data-name="Слой 1">
      <path class="cls-1" d="M91.34,12.71H45.55L36.08,32.79H31.13v-10H6.74v10H0v89.09H6.46v-4.3H4.3V58.19H37.44v-4.3H4.3V37.1h34.5L48.28,17H88.56l5.82,12.93,3.92-1.77ZM26.83,32.79H11V27.06H26.83v5.74Z"/>
      <path class="cls-1" d="M108.46,32.79v4.3H131.7V53.88H99v4.3H131.7v59.39H25.82v4.3H136V32.79Z"/>
      <path class="cls-1" d="M86.51,32.79h-37v4.3h37Z"/>
      <path class="cls-1" d="M81.77,21.6H54.23v4.3H81.77Z"/>
      <path class="cls-1" d="M119.65,75.4h-4.3v4.3h4.3Z"/>
      <path class="cls-1" d="M111,75.4h-4.3v4.3H111Z"/>
      <path class="cls-1" d="M21.09,75.4h-4.3v4.3h4.3Z"/>
      <path class="cls-1" d="M29.27,75.4H25.39v4.3h3.87Z"/>
      <path class="cls-1" d="M89.8,54.28,87,57.56A29.41,29.41,0,1,1,45,98.35L41.66,101A33.71,33.71,0,1,0,89.8,54.28Z"/>
      <path class="cls-1" d="M68,46.28a33.73,33.73,0,0,0-31.56,45.6l4-1.52A29.44,29.44,0,0,1,75.22,51.48l1.05-4.17A33.85,33.85,0,0,0,68,46.28Z"/>
      <path class="cls-1" d="M58.48,58.32a23.71,23.71,0,0,0-4.32,2.47l2.52,3.49a19.41,19.41,0,0,1,3.53-2Z"/>
      <path class="cls-1" d="M50.57,64A23.63,23.63,0,0,0,44.34,79.4l4.3.11a19.33,19.33,0,0,1,5.1-12.61Z"/>
      <path class="cls-1" d="M83.2,61.85l-2.77,3.3a19.37,19.37,0,1,1-28.06,26.3L48.91,94A23.67,23.67,0,1,0,83.2,61.85Z"/>
      <path class="cls-1" d="M63.13,56.83,64,61a19.47,19.47,0,0,1,4-.41v-4.3A23.82,23.82,0,0,0,63.13,56.83Z"/>
      <path class="cls-1" d="M77.32,80A9.34,9.34,0,0,1,68,89.32v4.3A13.64,13.64,0,0,0,81.63,80Z"/>
      <path class="cls-1" d="M132.47,0,.49,132l3,3,132-132Z"/>
    </g>
  </g>
</svg>
